#!OML:ASF E:/inclinewalkrobotboard/Project1/Captureday1/Session1/subject1.ASF
:FULLY-SPECIFIED
:DEGREES
101
root 0 0 0 15.501973942843478 36.40732467324321 1.811237281047028
lowerback 14.400472626544872 4.714743312752197 5.1547936974806134
upperback -3.604849407513182 6.479852628513862 2.1887257602876633
thorax -11.45970240635065 3.0428272722151797 -1.3047278917571172
lowerneck -16.96181209136161 -8.474918783888846 -3.1471821285068087
upperneck 24.50269623240755 -13.659572023844387 3.590644279991272
head 10.71377157749775 -6.1053978406540725 0.24880680687432366
rclavicle -1.186947298778565E-14 7.978920424631551E-16
rhumerus -34.24923975807355 13.643270470854958 -82.02404421817383
rradius 28.04009033970283
rwrist 11.743128066523155
rhand -18.482658985329252 -4.5636249907484014
rfingers 7.125019999999978
rthumb 7.908837886154899 -34.526911140784534
lclavicle 5.005303198505206E-15 8.273153645141386E-15
lhumerus -47.13071569876406 22.469162962922766 64.00958868562105
lradius 49.468430176693076
lwrist -13.459771622131967
lhand -13.42519612011674 16.605143391537066
lfingers 7.125019999999923
lthumb 12.699831416659649 45.803220772851965
rfemur -10.837643833144877 21.21866868548333 36.824566306548746
rtibia -1.2498514830017342
rfoot 2.1200658106167687 -26.807715935120704
rtoes -39.759696637701566
lfemur -27.656481157482347 -24.130329680348815 -21.285201950318168
ltibia 10.626403258217884
lfoot -32.08821917072144 -1.233798407430875
ltoes -40.701423892873656
102
root 0 0 0 15.533673094816915 37.18755827431006 1.7551529468498024
lowerback 14.387104916199768 4.782757838750908 5.27666695812241
upperback -3.6153448610302927 6.582883499052382 2.2679149173819004
thorax -11.452112908082546 3.0934563171349185 -1.2744825345547084
lowerneck -16.87368606504632 -8.60651591468529 -3.2690118461673707
upperneck 24.581538777112453 -13.8014719377991 3.548609433285713
head 10.750116720804982 -6.1839669631084515 0.23463734609966802
rclavicle -1.1882425598363165E-14 3.4344038304303764E-16
rhumerus -33.78973108990047 14.206817933347772 -82.35710711456493
rradius 28.92732534426441
rwrist 11.063632048970078
rhand -18.63762138765806 -4.5193713037196375
rfingers 7.125019999999974
rthumb 7.755724035650479 -34.49547074161037
lclavicle 4.4024524016424076E-15 7.602921218904364E-15
lhumerus -47.232066845624615 22.16124867658607 64.301715890892
lradius 49.75093869593627
lwrist -13.26803225042607
lhand -13.551011530508262 16.681337324452713
lfingers 7.125019999999921
lthumb 12.579701568375242 45.886275083918754
rfemur -11.796123146643414 21.510770593997123 37.22579490642897
rtibia -0.4104490060172701
rfoot 1.312715702367509 -26.5769855248127
rtoes -37.541158096144244
lfemur -33.30564396950667 -21.747935116063463 -21.067908014423868
ltibia 18.01995085893681
lfoot -30.558399573937944 -3.3335126970299864
ltoes -42.12575536506043
103
root 0 0 0 15.52801213548601 37.666665873457184 1.7187962859764903
lowerback 14.354757180102425 4.820900262044892 5.343706739024844
upperback -3.6286556761831568 6.641286870411692 2.3110341827399674
thorax -11.44143783899931 3.1222974283547105 -1.2574590596698747
lowerneck -16.822405695851046 -8.710345381817067 -3.366865135425969
upperneck 24.619890987125448 -13.924902361259102 3.561697886910123
head 10.766679282287411 -6.247212014751131 0.2400311338476735
rclavicle -1.1886848195865633E-14 -6.108832485450271E-17
rhumerus -33.45624286751354 14.631914713575632 -82.58892973646013
rradius 29.718132028999932
rwrist 10.558672271351384
rhand -18.72846097398166 -4.439291271111745
rfingers 7.125019999999972
rthumb 7.665045198580024 -34.42311111887542
lclavicle 3.9336516191397054E-15 7.009172231392228E-15
lhumerus -47.28572983484324 21.85915615770113 64.56003912890763
lradius 50.03783705661859
lwrist -13.099998632510292
lhand -13.681147104947755 16.74431526269393
lfingers 7.125019999999919
lthumb 12.455067741217624 45.95693845530374
rfemur -11.804400788685502 21.50481774538349 37.52351894120537
rtibia -0.0702900017929835
rfoot 1.1432384291164652 -26.49707160783525
rtoes -36.17081126552807
lfemur -37.02255856466626 -20.328472714200434 -20.860217222346165
ltibia 22.798974011679018
lfoot -29.80799991603002 -4.57808155873855
ltoes -42.86679563871436
104
root 0 0 0 15.503590822869324 38.04821655779793 1.6753700325129306
lowerback 14.299331804211135 4.854842209177604 5.4033427538319465
upperback -3.6509067939191535 6.694048577384023 2.3399044734191476
thorax -11.429374987132093 3.147708110265982 -1.2541423911765093
lowerneck -16.770977449294723 -8.791441252697185 -3.4363745777053802
upperneck 24.6707497320078 -14.0240966699332 3.583946325005528
head 10.785287963787502 -6.294554112482226 0.24742385122248112
rclavicle -1.1912505182073092E-14 -4.97205502071353E-16
rhumerus -33.173330824529906 15.108479030231683 -82.85858144410881
rradius 30.70483109009335
rwrist 9.975615495612452
rhand -18.79800810783085 -4.316053856288779
rfingers 7.125019999999968
rthumb 7.5940844272371 -34.30588439615856
lclavicle 3.370083607206384E-15 6.339121793691292E-15
lhumerus -47.363291763765275 21.47273913247581 64.88449810055972
lradius 50.36362065109662
lwrist -12.89409683210484
lhand -13.820068573810438 16.822414144404895
lfingers 7.1250199999999175
lthumb 12.322002838679872 46.04351198703481
rfemur -11.34324218556468 21.362576007099136 37.80790544040687
rtibia 0.05808346808870013
rfoot 1.2503403420130965 -26.48604087289316
rtoes -35.01257286267213
lfemur -40.186044432599836 -19.165836962634724 -20.645653959952707
ltibia 26.817630368713132
lfoot -29.29466350556909 -5.54967458926482
ltoes -43.45629728021389
105
root 0 0 0 15.457133768661187 38.3491154116385 1.6217150070987016
lowerback 14.211442437042631 4.888625060700447 5.460255694226649
upperback -3.685855029210898 6.747342663347692 2.353504905999878
thorax -11.414954244957626 3.17240324849437 -1.26883607700054
lowerneck -16.714427924025856 -8.848239346678028 -3.4759061452957516
upperneck 24.74224826291329 -14.094972119271706 3.6082866927253985
head 10.809017538762147 -6.324152113844687 0.2544934116408948
rclavicle -1.196598340091382E-14 -9.052589517179872E-16
rhumerus -32.965456786697985 15.55719163876227 -83.12337315869254
rradius 31.721311410773815
rwrist 9.427008957029138
rhand -18.840389227565474 -4.166112273882849
rfingers 7.1250199999999655
rthumb 7.549241130913869 -34.15975005908384
lclavicle 2.771900181508157E-15 5.690267745952643E-15
lhumerus -47.45714070164678 21.04784852888671 65.23660800343707
lradius 50.69444592311888
lwrist -12.681219689568323
lhand -13.959366368055463 16.903157934908727
lfingers 7.125019999999916
lthumb 12.18836674657506 46.13295876646238
rfemur -10.47722480413994 21.079865186120017 38.02561268919658
rtibia -0.013859387042010951
rfoot 1.6668767836639908 -26.55251794686309
rtoes -34.162983091282285
lfemur -42.305067140595696 -18.410773450928072 -20.464971788102204
ltibia 29.435254802021205
lfoot -29.008960249808947 -6.1100473656920595
ltoes -43.87232679017393
